<svg width="274" height="217" viewBox="0 0 274 217" fill="none" xmlns="http://www.w3.org/2000/svg">
<line x1="240.852" y1="215.287" x2="240.852" y2="61.5076" stroke="#ACDDD9" stroke-width="4"/>
<line x1="179.223" y1="216.028" x2="162.248" y2="141.823" stroke="#ACDDD9" stroke-width="4"/>
<circle cx="242.66" cy="30.7552" r="28.7552" stroke="#ACDDD9" stroke-width="4"/>
<circle cx="157.247" cy="111.42" r="28.7552" transform="rotate(-12.8846 157.247 111.42)" stroke="#ACDDD9" stroke-width="4"/>
<path d="M56.8792 154.13L56.5717 161.496H54.3419L54.0344 154.13H56.8792ZM55.4952 165.432C55.0339 165.432 54.6546 165.299 54.3573 165.032C54.0702 164.756 53.9267 164.417 53.9267 164.018C53.9267 163.607 54.0702 163.264 54.3573 162.987C54.6546 162.71 55.0339 162.572 55.4952 162.572C55.9463 162.572 56.3154 162.71 56.6024 162.987C56.8997 163.264 57.0484 163.607 57.0484 164.018C57.0484 164.417 56.8997 164.756 56.6024 165.032C56.3154 165.299 55.9463 165.432 55.4952 165.432Z" fill="#ACDDD9"/>
<path d="M43.1264 159.543C43.1264 157.779 43.4647 156.39 44.1413 155.375C44.8281 154.36 45.9302 153.853 47.4475 153.853C48.9647 153.853 50.0617 154.36 50.7383 155.375C51.4251 156.39 51.7686 157.779 51.7686 159.543C51.7686 161.326 51.4251 162.726 50.7383 163.741C50.0617 164.756 48.9647 165.263 47.4475 165.263C45.9302 165.263 44.8281 164.756 44.1413 163.741C43.4647 162.726 43.1264 161.326 43.1264 159.543ZM49.1851 159.543C49.1851 158.507 49.0724 157.713 48.8468 157.159C48.6213 156.595 48.1548 156.313 47.4475 156.313C46.7401 156.313 46.2736 156.595 46.0481 157.159C45.8226 157.713 45.7098 158.507 45.7098 159.543C45.7098 160.24 45.7508 160.819 45.8328 161.28C45.9148 161.731 46.0789 162.1 46.3249 162.387C46.5812 162.664 46.9554 162.803 47.4475 162.803C47.9395 162.803 48.3086 162.664 48.5547 162.387C48.8109 162.1 48.9801 161.731 49.0621 161.28C49.1441 160.819 49.1851 160.24 49.1851 159.543Z" fill="#ACDDD9"/>
<path d="M33.0949 159.543C33.0949 157.779 33.4332 156.39 34.1098 155.375C34.7967 154.36 35.8987 153.853 37.416 153.853C38.9332 153.853 40.0302 154.36 40.7068 155.375C41.3937 156.39 41.7371 157.779 41.7371 159.543C41.7371 161.326 41.3937 162.726 40.7068 163.741C40.0302 164.756 38.9332 165.263 37.416 165.263C35.8987 165.263 34.7967 164.756 34.1098 163.741C33.4332 162.726 33.0949 161.326 33.0949 159.543ZM39.1537 159.543C39.1537 158.507 39.0409 157.713 38.8153 157.159C38.5898 156.595 38.1234 156.313 37.416 156.313C36.7086 156.313 36.2422 156.595 36.0166 157.159C35.7911 157.713 35.6783 158.507 35.6783 159.543C35.6783 160.24 35.7193 160.819 35.8013 161.28C35.8834 161.731 36.0474 162.1 36.2934 162.387C36.5497 162.664 36.9239 162.803 37.416 162.803C37.9081 162.803 38.2771 162.664 38.5232 162.387C38.7795 162.1 38.9486 161.731 39.0306 161.28C39.1126 160.819 39.1537 160.24 39.1537 159.543Z" fill="#ACDDD9"/>
<path d="M30.9975 156.375H26.1997V158.497C26.4048 158.271 26.6918 158.087 27.0609 157.943C27.4299 157.8 27.8298 157.728 28.2603 157.728C29.0292 157.728 29.6648 157.902 30.1671 158.251C30.6797 158.599 31.0539 159.051 31.2897 159.604C31.5255 160.158 31.6434 160.757 31.6434 161.403C31.6434 162.603 31.3051 163.556 30.6285 164.264C29.9519 164.961 28.9984 165.309 27.7682 165.309C26.9481 165.309 26.2356 165.171 25.6308 164.894C25.0259 164.607 24.5594 164.212 24.2314 163.71C23.9033 163.208 23.7239 162.628 23.6932 161.972H26.2612C26.3227 162.29 26.4714 162.557 26.7072 162.772C26.943 162.977 27.2659 163.079 27.676 163.079C28.1578 163.079 28.5166 162.926 28.7524 162.618C28.9882 162.311 29.1061 161.901 29.1061 161.388C29.1061 160.886 28.9831 160.501 28.737 160.235C28.491 159.968 28.1322 159.835 27.6606 159.835C27.312 159.835 27.025 159.922 26.7995 160.096C26.5739 160.26 26.4253 160.481 26.3535 160.757H23.8162V154.068H30.9975V156.375Z" fill="#ACDDD9"/>
<path d="M155.764 111.365C155.371 109.646 155.391 108.217 155.824 107.076C156.268 105.934 157.229 105.193 158.708 104.855C160.187 104.517 161.369 104.767 162.255 105.605C163.151 106.441 163.796 107.719 164.189 109.438C164.587 111.177 164.564 112.618 164.121 113.76C163.687 114.9 162.731 115.64 161.252 115.978C159.773 116.316 158.586 116.067 157.69 115.231C156.804 114.393 156.162 113.104 155.764 111.365ZM161.671 110.014C161.44 109.005 161.153 108.255 160.809 107.766C160.464 107.267 159.946 107.096 159.257 107.253C158.567 107.411 158.175 107.79 158.081 108.39C157.985 108.98 158.052 109.78 158.283 110.789C158.438 111.469 158.607 112.024 158.79 112.455C158.971 112.877 159.213 113.2 159.517 113.425C159.828 113.638 160.224 113.689 160.704 113.579C161.183 113.47 161.512 113.253 161.69 112.928C161.876 112.591 161.959 112.193 161.938 111.735C161.915 111.267 161.826 110.694 161.671 110.014Z" fill="#ACDDD9"/>
<path d="M149.187 109.778L148.641 107.394L152.794 106.445L155.297 117.388L152.629 117.998L150.671 109.438L149.187 109.778Z" fill="#ACDDD9"/>
<path d="M40.6748 136.092L40.6748 134.092H40.6748V136.092ZM2 160.264L0 160.264V160.264H2ZM40.6748 184.436L40.6748 186.436L40.6748 186.436L40.6748 184.436ZM65.9863 178.54L65.034 176.781L65.5545 176.499L66.1446 176.546L65.9863 178.54ZM79.3496 179.601L80.4727 177.946L86.731 182.193L79.1914 181.594L79.3496 179.601ZM71.8867 174.536L70.7637 176.191L68.5919 174.717L70.589 173.014L71.8867 174.536ZM79.3496 160.264L81.3496 160.264L81.3496 160.264L79.3496 160.264ZM40.6748 136.092L40.6748 138.092C30.31 138.092 21.0213 140.722 14.3876 144.868C7.72581 149.031 4 154.527 4 160.264H2H0C0 152.65 4.93191 146.061 12.2676 141.476C19.6316 136.873 29.6802 134.092 40.6748 134.092L40.6748 136.092ZM2 160.264L4 160.264C4.00008 166 7.72592 171.496 14.3878 175.66C21.0214 179.806 30.3101 182.436 40.6748 182.436L40.6748 184.436L40.6748 186.436C29.6803 186.436 19.6317 183.654 12.2677 179.052C4.93203 174.467 0.00010064 167.877 1.74751e-10 160.264L2 160.264ZM40.6748 184.436V182.436C50.0635 182.436 58.578 180.277 65.034 176.781L65.9863 178.54L66.9386 180.299C59.8281 184.149 50.6447 186.436 40.6748 186.436V184.436ZM65.9863 178.54L66.1446 176.546L79.5078 177.607L79.3496 179.601L79.1914 181.594L65.8281 180.534L65.9863 178.54ZM79.3496 179.601L78.2266 181.256L70.7637 176.191L71.8867 174.536L73.0098 172.881L80.4727 177.946L79.3496 179.601ZM71.8867 174.536L70.589 173.014C74.9702 169.278 77.3495 164.86 77.3496 160.264L79.3496 160.264L81.3496 160.264C81.3495 166.346 78.1852 171.794 73.1844 176.058L71.8867 174.536ZM79.3496 160.264H77.3496C77.3496 154.527 73.6238 149.031 66.962 144.868C60.3284 140.722 51.0396 138.092 40.6748 138.092V136.092V134.092C51.6694 134.092 61.7181 136.873 69.082 141.476C76.4177 146.06 81.3496 152.65 81.3496 160.264H79.3496Z" fill="#ACDDD9"/>
<path d="M250.911 27.203H246.113V29.3251C246.318 29.0996 246.605 28.915 246.974 28.7715C247.343 28.628 247.743 28.5562 248.174 28.5562C248.942 28.5562 249.578 28.7305 250.08 29.0791C250.593 29.4276 250.967 29.8787 251.203 30.4323C251.439 30.9859 251.557 31.5856 251.557 32.2315C251.557 33.4309 251.218 34.3843 250.542 35.0917C249.865 35.7888 248.912 36.1374 247.681 36.1374C246.861 36.1374 246.149 35.999 245.544 35.7222C244.939 35.4351 244.473 35.0405 244.145 34.5381C243.817 34.0358 243.637 33.4566 243.606 32.8005H246.174C246.236 33.1183 246.385 33.3848 246.62 33.6001C246.856 33.8051 247.179 33.9076 247.589 33.9076C248.071 33.9076 248.43 33.7539 248.666 33.4463C248.901 33.1388 249.019 32.7287 249.019 32.2161C249.019 31.7138 248.896 31.3293 248.65 31.0628C248.404 30.7962 248.045 30.663 247.574 30.663C247.225 30.663 246.938 30.7501 246.713 30.9244C246.487 31.0884 246.338 31.3088 246.267 31.5856H243.729V24.8964H250.911V27.203Z" fill="#ACDDD9"/>
<path d="M233.788 28.0795C233.829 26.9826 234.188 26.1368 234.865 25.5422C235.541 24.9476 236.459 24.6503 237.617 24.6503C238.386 24.6503 239.042 24.7836 239.586 25.0501C240.139 25.3167 240.554 25.6806 240.831 26.142C241.118 26.6033 241.262 27.121 241.262 27.6951C241.262 28.3717 241.093 28.9253 240.754 29.3559C240.416 29.7762 240.021 30.0632 239.57 30.217V30.2785C240.155 30.4733 240.616 30.7962 240.954 31.2473C241.293 31.6984 241.462 32.2776 241.462 32.985C241.462 33.6206 241.313 34.1844 241.016 34.6765C240.729 35.1584 240.303 35.5377 239.739 35.8145C239.186 36.0913 238.525 36.2297 237.756 36.2297C236.525 36.2297 235.541 35.9272 234.803 35.3224C234.075 34.7175 233.691 33.8051 233.65 32.5852H236.203C236.213 33.0362 236.341 33.3951 236.587 33.6616C236.833 33.9179 237.192 34.046 237.663 34.046C238.063 34.046 238.371 33.9333 238.586 33.7077C238.812 33.4719 238.924 33.1644 238.924 32.7851C238.924 32.293 238.765 31.9393 238.448 31.724C238.14 31.4985 237.643 31.3857 236.956 31.3857H236.464V29.2482H236.956C237.479 29.2482 237.899 29.1611 238.217 28.9868C238.545 28.8023 238.709 28.4794 238.709 28.018C238.709 27.649 238.607 27.3619 238.402 27.1569C238.196 26.9518 237.915 26.8493 237.556 26.8493C237.166 26.8493 236.874 26.9672 236.679 27.203C236.495 27.4388 236.387 27.731 236.356 28.0795H233.788Z" fill="#ACDDD9"/>
</svg>
