<svg width="1369" height="300" viewBox="0 0 1369 300" fill="none" xmlns="http://www.w3.org/2000/svg">
<line x1="194.382" y1="298" x2="194.382" y2="159" stroke="#ACDDD9" stroke-width="4"/>
<line x1="326.882" y1="298.003" x2="326.882" y2="221.997" stroke="#ACDDD9" stroke-width="4"/>
<line x1="134.488" y1="298.591" x2="113.139" y2="248.984" stroke="#ACDDD9" stroke-width="4"/>
<line x1="1326.63" y1="298" x2="1326.63" y2="97.9964" stroke="#ACDDD9" stroke-width="4"/>
<line x1="1246.46" y1="298.831" x2="1224.39" y2="202.32" stroke="#ACDDD9" stroke-width="4"/>
<circle cx="195.382" cy="119" r="38" stroke="#ACDDD9" stroke-width="4"/>
<circle cx="328.382" cy="182" r="38" stroke="#ACDDD9" stroke-width="4"/>
<circle cx="98.9362" cy="211.554" r="38" transform="rotate(-23.2853 98.9362 211.554)" stroke="#ACDDD9" stroke-width="4"/>
<circle cx="1328.38" cy="58" r="38" stroke="#ACDDD9" stroke-width="4"/>
<circle cx="1217.29" cy="162.912" r="38" transform="rotate(-12.8846 1217.29 162.912)" stroke="#ACDDD9" stroke-width="4"/>
<path d="M202.337 118.5C202.337 116.207 202.777 114.4 203.657 113.08C204.55 111.76 205.983 111.1 207.957 111.1C209.93 111.1 211.357 111.76 212.237 113.08C213.13 114.4 213.577 116.207 213.577 118.5C213.577 120.82 213.13 122.64 212.237 123.96C211.357 125.28 209.93 125.94 207.957 125.94C205.983 125.94 204.55 125.28 203.657 123.96C202.777 122.64 202.337 120.82 202.337 118.5ZM210.217 118.5C210.217 117.153 210.07 116.12 209.777 115.4C209.483 114.667 208.877 114.3 207.957 114.3C207.037 114.3 206.43 114.667 206.137 115.4C205.843 116.12 205.697 117.153 205.697 118.5C205.697 119.407 205.75 120.16 205.857 120.76C205.963 121.347 206.177 121.827 206.497 122.2C206.83 122.56 207.317 122.74 207.957 122.74C208.597 122.74 209.077 122.56 209.397 122.2C209.73 121.827 209.95 121.347 210.057 120.76C210.163 120.16 210.217 119.407 210.217 118.5Z" fill="#ACDDD9"/>
<path d="M189.29 118.5C189.29 116.207 189.73 114.4 190.61 113.08C191.503 111.76 192.936 111.1 194.91 111.1C196.883 111.1 198.31 111.76 199.19 113.08C200.083 114.4 200.53 116.207 200.53 118.5C200.53 120.82 200.083 122.64 199.19 123.96C198.31 125.28 196.883 125.94 194.91 125.94C192.936 125.94 191.503 125.28 190.61 123.96C189.73 122.64 189.29 120.82 189.29 118.5ZM197.17 118.5C197.17 117.153 197.023 116.12 196.73 115.4C196.436 114.667 195.83 114.3 194.91 114.3C193.99 114.3 193.383 114.667 193.09 115.4C192.796 116.12 192.65 117.153 192.65 118.5C192.65 119.407 192.703 120.16 192.81 120.76C192.916 121.347 193.13 121.827 193.45 122.2C193.783 122.56 194.27 122.74 194.91 122.74C195.55 122.74 196.03 122.56 196.35 122.2C196.683 121.827 196.903 121.347 197.01 120.76C197.116 120.16 197.17 119.407 197.17 118.5Z" fill="#ACDDD9"/>
<path d="M177.3 115.52C177.354 114.093 177.82 112.993 178.7 112.22C179.58 111.447 180.774 111.06 182.28 111.06C183.28 111.06 184.134 111.233 184.84 111.58C185.56 111.927 186.1 112.4 186.46 113C186.834 113.6 187.02 114.273 187.02 115.02C187.02 115.9 186.8 116.62 186.36 117.18C185.92 117.727 185.407 118.1 184.82 118.3V118.38C185.58 118.633 186.18 119.053 186.62 119.64C187.06 120.227 187.28 120.98 187.28 121.9C187.28 122.727 187.087 123.46 186.7 124.1C186.327 124.727 185.774 125.22 185.04 125.58C184.32 125.94 183.46 126.12 182.46 126.12C180.86 126.12 179.58 125.727 178.62 124.94C177.674 124.153 177.174 122.967 177.12 121.38H180.44C180.454 121.967 180.62 122.433 180.94 122.78C181.26 123.113 181.727 123.28 182.34 123.28C182.86 123.28 183.26 123.133 183.54 122.84C183.834 122.533 183.98 122.133 183.98 121.64C183.98 121 183.774 120.54 183.36 120.26C182.96 119.967 182.314 119.82 181.42 119.82H180.78V117.04H181.42C182.1 117.04 182.647 116.927 183.06 116.7C183.487 116.46 183.7 116.04 183.7 115.44C183.7 114.96 183.567 114.587 183.3 114.32C183.034 114.053 182.667 113.92 182.2 113.92C181.694 113.92 181.314 114.073 181.06 114.38C180.82 114.687 180.68 115.067 180.64 115.52H177.3Z" fill="#ACDDD9"/>
<path d="M94.5359 32.46L94.1359 42.04H91.2359L90.8359 32.46H94.5359ZM92.7359 47.16C92.1359 47.16 91.6426 46.9866 91.2559 46.64C90.8826 46.28 90.6959 45.84 90.6959 45.32C90.6959 44.7866 90.8826 44.34 91.2559 43.98C91.6426 43.62 92.1359 43.44 92.7359 43.44C93.3226 43.44 93.8026 43.62 94.1759 43.98C94.5626 44.34 94.7559 44.7866 94.7559 45.32C94.7559 45.84 94.5626 46.28 94.1759 46.64C93.8026 46.9866 93.3226 47.16 92.7359 47.16Z" fill="#ACDDD9"/>
<path d="M76.6491 39.5C76.6491 37.2066 77.0891 35.4 77.9691 34.08C78.8624 32.76 80.2957 32.1 82.2691 32.1C84.2424 32.1 85.6691 32.76 86.5491 34.08C87.4424 35.4 87.8891 37.2066 87.8891 39.5C87.8891 41.82 87.4424 43.64 86.5491 44.96C85.6691 46.28 84.2424 46.94 82.2691 46.94C80.2957 46.94 78.8624 46.28 77.9691 44.96C77.0891 43.64 76.6491 41.82 76.6491 39.5ZM84.5291 39.5C84.5291 38.1533 84.3824 37.12 84.0891 36.4C83.7957 35.6666 83.1891 35.3 82.2691 35.3C81.3491 35.3 80.7424 35.6666 80.4491 36.4C80.1557 37.12 80.0091 38.1533 80.0091 39.5C80.0091 40.4066 80.0624 41.16 80.1691 41.76C80.2757 42.3466 80.4891 42.8266 80.8091 43.2C81.1424 43.56 81.6291 43.74 82.2691 43.74C82.9091 43.74 83.3891 43.56 83.7091 43.2C84.0424 42.8266 84.2624 42.3466 84.3691 41.76C84.4757 41.16 84.5291 40.4066 84.5291 39.5Z" fill="#ACDDD9"/>
<path d="M63.6022 39.5C63.6022 37.2066 64.0422 35.4 64.9222 34.08C65.8155 32.76 67.2489 32.1 69.2222 32.1C71.1955 32.1 72.6222 32.76 73.5022 34.08C74.3955 35.4 74.8422 37.2066 74.8422 39.5C74.8422 41.82 74.3955 43.64 73.5022 44.96C72.6222 46.28 71.1955 46.94 69.2222 46.94C67.2489 46.94 65.8155 46.28 64.9222 44.96C64.0422 43.64 63.6022 41.82 63.6022 39.5ZM71.4822 39.5C71.4822 38.1533 71.3355 37.12 71.0422 36.4C70.7489 35.6666 70.1422 35.3 69.2222 35.3C68.3022 35.3 67.6955 35.6666 67.4022 36.4C67.1089 37.12 66.9622 38.1533 66.9622 39.5C66.9622 40.4066 67.0155 41.16 67.1222 41.76C67.2289 42.3466 67.4422 42.8266 67.7622 43.2C68.0955 43.56 68.5822 43.74 69.2222 43.74C69.8622 43.74 70.3422 43.56 70.6622 43.2C70.9955 42.8266 71.2155 42.3466 71.3222 41.76C71.4289 41.16 71.4822 40.4066 71.4822 39.5Z" fill="#ACDDD9"/>
<path d="M50.5553 39.5C50.5553 37.2066 50.9953 35.4 51.8753 34.08C52.7687 32.76 54.202 32.1 56.1753 32.1C58.1487 32.1 59.5753 32.76 60.4553 34.08C61.3487 35.4 61.7953 37.2066 61.7953 39.5C61.7953 41.82 61.3487 43.64 60.4553 44.96C59.5753 46.28 58.1487 46.94 56.1753 46.94C54.202 46.94 52.7687 46.28 51.8753 44.96C50.9953 43.64 50.5553 41.82 50.5553 39.5ZM58.4353 39.5C58.4353 38.1533 58.2887 37.12 57.9953 36.4C57.702 35.6666 57.0953 35.3 56.1753 35.3C55.2553 35.3 54.6487 35.6666 54.3553 36.4C54.062 37.12 53.9153 38.1533 53.9153 39.5C53.9153 40.4066 53.9687 41.16 54.0753 41.76C54.182 42.3466 54.3953 42.8266 54.7153 43.2C55.0487 43.56 55.5353 43.74 56.1753 43.74C56.8153 43.74 57.2953 43.56 57.6153 43.2C57.9487 42.8266 58.1687 42.3466 58.2753 41.76C58.382 41.16 58.4353 40.4066 58.4353 39.5Z" fill="#ACDDD9"/>
<path d="M42.6758 35.58V32.4H48.2158V47H44.6558V35.58H42.6758Z" fill="#ACDDD9"/>
<path d="M1086.76 218.46L1086.36 228.04H1083.46L1083.06 218.46H1086.76ZM1084.96 233.16C1084.36 233.16 1083.86 232.987 1083.48 232.64C1083.1 232.28 1082.92 231.84 1082.92 231.32C1082.92 230.787 1083.1 230.34 1083.48 229.98C1083.86 229.62 1084.36 229.44 1084.96 229.44C1085.54 229.44 1086.02 229.62 1086.4 229.98C1086.78 230.34 1086.98 230.787 1086.98 231.32C1086.98 231.84 1086.78 232.28 1086.4 232.64C1086.02 232.987 1085.54 233.16 1084.96 233.16Z" fill="#ACDDD9"/>
<path d="M1068.87 225.5C1068.87 223.207 1069.31 221.4 1070.19 220.08C1071.08 218.76 1072.52 218.1 1074.49 218.1C1076.46 218.1 1077.89 218.76 1078.77 220.08C1079.66 221.4 1080.11 223.207 1080.11 225.5C1080.11 227.82 1079.66 229.64 1078.77 230.96C1077.89 232.28 1076.46 232.94 1074.49 232.94C1072.52 232.94 1071.08 232.28 1070.19 230.96C1069.31 229.64 1068.87 227.82 1068.87 225.5ZM1076.75 225.5C1076.75 224.153 1076.6 223.12 1076.31 222.4C1076.02 221.667 1075.41 221.3 1074.49 221.3C1073.57 221.3 1072.96 221.667 1072.67 222.4C1072.38 223.12 1072.23 224.153 1072.23 225.5C1072.23 226.407 1072.28 227.16 1072.39 227.76C1072.5 228.347 1072.71 228.827 1073.03 229.2C1073.36 229.56 1073.85 229.74 1074.49 229.74C1075.13 229.74 1075.61 229.56 1075.93 229.2C1076.26 228.827 1076.48 228.347 1076.59 227.76C1076.7 227.16 1076.75 226.407 1076.75 225.5Z" fill="#ACDDD9"/>
<path d="M1055.82 225.5C1055.82 223.207 1056.26 221.4 1057.14 220.08C1058.04 218.76 1059.47 218.1 1061.44 218.1C1063.42 218.1 1064.84 218.76 1065.72 220.08C1066.62 221.4 1067.06 223.207 1067.06 225.5C1067.06 227.82 1066.62 229.64 1065.72 230.96C1064.84 232.28 1063.42 232.94 1061.44 232.94C1059.47 232.94 1058.04 232.28 1057.14 230.96C1056.26 229.64 1055.82 227.82 1055.82 225.5ZM1063.7 225.5C1063.7 224.153 1063.56 223.12 1063.26 222.4C1062.97 221.667 1062.36 221.3 1061.44 221.3C1060.52 221.3 1059.92 221.667 1059.62 222.4C1059.33 223.12 1059.18 224.153 1059.18 225.5C1059.18 226.407 1059.24 227.16 1059.34 227.76C1059.45 228.347 1059.66 228.827 1059.98 229.2C1060.32 229.56 1060.8 229.74 1061.44 229.74C1062.08 229.74 1062.56 229.56 1062.88 229.2C1063.22 228.827 1063.44 228.347 1063.54 227.76C1063.65 227.16 1063.7 226.407 1063.7 225.5Z" fill="#ACDDD9"/>
<path d="M1053.1 221.38H1046.86V224.14C1047.12 223.847 1047.5 223.607 1047.98 223.42C1048.46 223.233 1048.98 223.14 1049.54 223.14C1050.54 223.14 1051.36 223.367 1052.02 223.82C1052.68 224.273 1053.17 224.86 1053.48 225.58C1053.78 226.3 1053.94 227.08 1053.94 227.92C1053.94 229.48 1053.5 230.72 1052.62 231.64C1051.74 232.547 1050.5 233 1048.9 233C1047.83 233 1046.9 232.82 1046.12 232.46C1045.33 232.087 1044.72 231.573 1044.3 230.92C1043.87 230.267 1043.64 229.513 1043.6 228.66H1046.94C1047.02 229.073 1047.21 229.42 1047.52 229.7C1047.82 229.967 1048.24 230.1 1048.78 230.1C1049.4 230.1 1049.87 229.9 1050.18 229.5C1050.48 229.1 1050.64 228.567 1050.64 227.9C1050.64 227.247 1050.48 226.747 1050.16 226.4C1049.84 226.053 1049.37 225.88 1048.76 225.88C1048.3 225.88 1047.93 225.993 1047.64 226.22C1047.34 226.433 1047.15 226.72 1047.06 227.08H1043.76V218.38H1053.1V221.38Z" fill="#ACDDD9"/>
<path d="M328.471 181.5C328.471 179.207 328.911 177.4 329.791 176.08C330.685 174.76 332.118 174.1 334.091 174.1C336.065 174.1 337.491 174.76 338.371 176.08C339.265 177.4 339.711 179.207 339.711 181.5C339.711 183.82 339.265 185.64 338.371 186.96C337.491 188.28 336.065 188.94 334.091 188.94C332.118 188.94 330.685 188.28 329.791 186.96C328.911 185.64 328.471 183.82 328.471 181.5ZM336.351 181.5C336.351 180.153 336.205 179.12 335.911 178.4C335.618 177.667 335.011 177.3 334.091 177.3C333.171 177.3 332.565 177.667 332.271 178.4C331.978 179.12 331.831 180.153 331.831 181.5C331.831 182.407 331.885 183.16 331.991 183.76C332.098 184.347 332.311 184.827 332.631 185.2C332.965 185.56 333.451 185.74 334.091 185.74C334.731 185.74 335.211 185.56 335.531 185.2C335.865 184.827 336.085 184.347 336.191 183.76C336.298 183.16 336.351 182.407 336.351 181.5Z" fill="#ACDDD9"/>
<path d="M316.926 186.26C317.379 185.9 317.586 185.733 317.546 185.76C318.852 184.68 319.879 183.793 320.626 183.1C321.386 182.407 322.026 181.68 322.546 180.92C323.066 180.16 323.326 179.42 323.326 178.7C323.326 178.153 323.199 177.727 322.946 177.42C322.692 177.113 322.312 176.96 321.806 176.96C321.299 176.96 320.899 177.153 320.606 177.54C320.326 177.913 320.186 178.447 320.186 179.14H316.886C316.912 178.007 317.152 177.06 317.606 176.3C318.072 175.54 318.679 174.98 319.426 174.62C320.186 174.26 321.026 174.08 321.946 174.08C323.532 174.08 324.726 174.487 325.526 175.3C326.339 176.113 326.746 177.173 326.746 178.48C326.746 179.907 326.259 181.233 325.286 182.46C324.312 183.673 323.072 184.86 321.566 186.02H326.966V188.8H316.926V186.26Z" fill="#ACDDD9"/>
<path d="M101.405 205.462L95.6733 207.929L96.7644 210.464C96.8934 210.089 97.1414 209.721 97.5086 209.36C97.8757 208.999 98.3164 208.707 98.8308 208.486C99.7493 208.091 100.598 207.972 101.378 208.13C102.169 208.283 102.848 208.63 103.414 209.17C103.981 209.71 104.43 210.366 104.762 211.137C105.379 212.57 105.465 213.883 105.02 215.076C104.57 216.257 103.61 217.163 102.141 217.796C101.161 218.218 100.239 218.419 99.3737 218.399C98.5035 218.367 97.7433 218.135 97.0931 217.704C96.4429 217.272 95.9308 216.673 95.5567 215.905L98.6247 214.584C98.8616 214.932 99.1762 215.174 99.5686 215.31C99.9557 215.434 100.394 215.39 100.884 215.18C101.46 214.932 101.809 214.564 101.933 214.075C102.056 213.586 101.986 213.036 101.723 212.424C101.465 211.823 101.12 211.427 100.689 211.235C100.258 211.044 99.7609 211.069 99.1975 211.311C98.7811 211.49 98.483 211.742 98.3031 212.066C98.118 212.378 98.0537 212.718 98.1103 213.086L95.0791 214.39L91.6399 206.399L100.219 202.706L101.405 205.462Z" fill="#ACDDD9"/>
<path d="M1215.37 162.841C1214.85 160.605 1214.88 158.746 1215.44 157.263C1216.02 155.777 1217.27 154.814 1219.19 154.374C1221.12 153.934 1222.66 154.259 1223.81 155.349C1224.97 156.437 1225.81 158.099 1226.32 160.334C1226.84 162.596 1226.81 164.47 1226.23 165.955C1225.67 167.438 1224.43 168.4 1222.5 168.84C1220.58 169.28 1219.04 168.956 1217.87 167.869C1216.72 166.778 1215.88 165.102 1215.37 162.841ZM1223.05 161.083C1222.75 159.771 1222.37 158.796 1221.93 158.16C1221.48 157.51 1220.8 157.288 1219.91 157.493C1219.01 157.698 1218.5 158.191 1218.38 158.971C1218.25 159.739 1218.34 160.779 1218.64 162.091C1218.84 162.975 1219.06 163.698 1219.3 164.259C1219.54 164.807 1219.85 165.227 1220.25 165.52C1220.65 165.796 1221.17 165.863 1221.79 165.721C1222.41 165.578 1222.84 165.295 1223.07 164.873C1223.31 164.435 1223.42 163.918 1223.4 163.322C1223.37 162.713 1223.25 161.967 1223.05 161.083Z" fill="#ACDDD9"/>
<path d="M1206.81 160.776L1206.1 157.676L1211.5 156.441L1214.76 170.673L1211.29 171.467L1208.74 160.335L1206.81 160.776Z" fill="#ACDDD9"/>
<path d="M28.6328 69.501L29.5851 67.7422L29.0646 67.4604L28.4746 67.5072L28.6328 69.501ZM7.38187 71.1875L6.25886 69.5325L8.56544e-06 73.7796L7.54009 73.1812L7.38187 71.1875ZM19.2491 63.1348L20.3721 64.7897L22.544 63.3159L20.5467 61.6129L19.2491 63.1348ZM68.8819 2V4C85.5497 4 100.545 8.22648 111.309 14.9541C122.101 21.6993 128.382 30.7617 128.382 40.4375H130.382H132.382C132.382 28.8849 124.895 18.7285 113.429 11.5621C101.934 4.37805 86.1795 0 68.8819 0V2ZM130.382 40.4375H128.382C128.382 50.1133 122.101 59.1757 111.309 65.9209C100.545 72.6485 85.5497 76.875 68.8819 76.875V78.875V80.875C86.1795 80.875 101.934 76.4969 113.429 69.3129C124.895 62.1465 132.382 51.9901 132.382 40.4375H130.382ZM68.8819 78.875V76.875C53.7809 76.875 40.0445 73.4053 29.5851 67.7422L28.6328 69.501L27.6806 71.2597C38.7944 77.2772 53.1998 80.875 68.8819 80.875V78.875ZM28.6328 69.501L28.4746 67.5072L7.22364 69.1938L7.38187 71.1875L7.54009 73.1812L28.7911 71.4947L28.6328 69.501ZM7.38187 71.1875L8.50487 72.8425L20.3721 64.7897L19.2491 63.1348L18.1261 61.4798L6.25886 69.5325L7.38187 71.1875ZM19.2491 63.1348L20.5467 61.6129C13.3968 55.5163 9.38187 48.1854 9.38187 40.4375H7.38187H5.38187C5.38187 49.6717 10.1816 58.0315 17.9514 64.6566L19.2491 63.1348ZM7.38187 40.4375H9.38187C9.38187 30.7617 15.6624 21.6993 26.4548 14.9541C37.219 8.22648 52.214 4 68.8819 4V2V0C51.5842 0 35.8293 4.37805 24.3348 11.5621C12.8685 18.7285 5.38187 28.8849 5.38187 40.4375H7.38187Z" fill="#ACDDD9"/>
<path d="M1065.68 195L1065.68 193L1065.68 193L1065.68 195ZM1065.68 257.875L1065.68 259.875H1065.68V257.875ZM1098.6 250.208L1097.65 248.449L1098.17 248.167L1098.76 248.214L1098.6 250.208ZM1115.98 251.588L1117.1 249.933L1123.36 254.18L1115.82 253.582L1115.98 251.588ZM1106.28 245.001L1105.15 246.656L1102.98 245.182L1104.98 243.479L1106.28 245.001ZM1065.68 195V197C1052.11 197 1039.91 200.443 1031.17 205.904C1022.41 211.382 1017.38 218.695 1017.38 226.438H1015.38H1013.38C1013.38 216.818 1019.61 208.412 1029.05 202.512C1038.52 196.595 1051.48 193 1065.68 193V195ZM1015.38 226.438H1017.38C1017.38 234.18 1022.41 241.493 1031.17 246.971C1039.91 252.432 1052.11 255.875 1065.68 255.875V257.875V259.875C1051.48 259.875 1038.52 256.28 1029.05 250.363C1019.61 244.463 1013.38 236.057 1013.38 226.438H1015.38ZM1065.68 257.875L1065.68 255.875C1077.98 255.875 1089.15 253.049 1097.65 248.449L1098.6 250.208L1099.55 251.967C1090.4 256.921 1078.56 259.875 1065.68 259.875L1065.68 257.875ZM1098.6 250.208L1098.76 248.214L1116.14 249.594L1115.98 251.588L1115.82 253.582L1098.44 252.202L1098.6 250.208ZM1115.98 251.588L1114.86 253.243L1105.15 246.656L1106.28 245.001L1107.4 243.346L1117.1 249.933L1115.98 251.588ZM1106.28 245.001L1104.98 243.479C1110.77 238.541 1113.98 232.639 1113.98 226.438H1115.98H1117.98C1117.98 234.125 1113.98 241.056 1107.57 246.523L1106.28 245.001ZM1115.98 226.438H1113.98C1113.98 218.695 1108.95 211.382 1100.19 205.904C1091.45 200.443 1079.26 197 1065.68 197L1065.68 195L1065.68 193C1079.89 193 1092.84 196.595 1102.31 202.512C1111.75 208.412 1117.98 216.818 1117.98 226.438H1115.98Z" fill="#ACDDD9"/>
<path d="M1339.11 53.38H1332.87V56.14C1333.14 55.8467 1333.51 55.6067 1333.99 55.42C1334.47 55.2333 1334.99 55.14 1335.55 55.14C1336.55 55.14 1337.38 55.3667 1338.03 55.82C1338.7 56.2733 1339.19 56.86 1339.49 57.58C1339.8 58.3 1339.95 59.08 1339.95 59.92C1339.95 61.48 1339.51 62.72 1338.63 63.64C1337.75 64.5467 1336.51 65 1334.91 65C1333.85 65 1332.92 64.82 1332.13 64.46C1331.35 64.0867 1330.74 63.5733 1330.31 62.92C1329.89 62.2667 1329.65 61.5133 1329.61 60.66H1332.95C1333.03 61.0733 1333.23 61.42 1333.53 61.7C1333.84 61.9667 1334.26 62.1 1334.79 62.1C1335.42 62.1 1335.89 61.9 1336.19 61.5C1336.5 61.1 1336.65 60.5667 1336.65 59.9C1336.65 59.2467 1336.49 58.7467 1336.17 58.4C1335.85 58.0533 1335.39 57.88 1334.77 57.88C1334.32 57.88 1333.95 57.9933 1333.65 58.22C1333.36 58.4333 1333.17 58.72 1333.07 59.08H1329.77V50.38H1339.11V53.38Z" fill="#ACDDD9"/>
<path d="M1316.84 54.52C1316.9 53.0933 1317.36 51.9933 1318.24 51.22C1319.12 50.4467 1320.32 50.06 1321.82 50.06C1322.82 50.06 1323.68 50.2333 1324.38 50.58C1325.1 50.9267 1325.64 51.4 1326 52C1326.38 52.6 1326.56 53.2733 1326.56 54.02C1326.56 54.9 1326.34 55.62 1325.9 56.18C1325.46 56.7267 1324.95 57.1 1324.36 57.3V57.38C1325.12 57.6333 1325.72 58.0533 1326.16 58.64C1326.6 59.2267 1326.82 59.98 1326.82 60.9C1326.82 61.7267 1326.63 62.46 1326.24 63.1C1325.87 63.7267 1325.32 64.22 1324.58 64.58C1323.86 64.94 1323 65.12 1322 65.12C1320.4 65.12 1319.12 64.7267 1318.16 63.94C1317.22 63.1533 1316.72 61.9667 1316.66 60.38H1319.98C1320 60.9667 1320.16 61.4333 1320.48 61.78C1320.8 62.1133 1321.27 62.28 1321.88 62.28C1322.4 62.28 1322.8 62.1333 1323.08 61.84C1323.38 61.5333 1323.52 61.1333 1323.52 60.64C1323.52 60 1323.32 59.54 1322.9 59.26C1322.5 58.9667 1321.86 58.82 1320.96 58.82H1320.32V56.04H1320.96C1321.64 56.04 1322.19 55.9267 1322.6 55.7C1323.03 55.46 1323.24 55.04 1323.24 54.44C1323.24 53.96 1323.11 53.5867 1322.84 53.32C1322.58 53.0533 1322.21 52.92 1321.74 52.92C1321.24 52.92 1320.86 53.0733 1320.6 53.38C1320.36 53.6867 1320.22 54.0667 1320.18 54.52H1316.84Z" fill="#ACDDD9"/>
</svg>
