<svg width="223" height="198" viewBox="0 0 223 198" fill="none" xmlns="http://www.w3.org/2000/svg">
<path d="M48.9229 19.0085C67.6286 18.4825 92.101 18.4558 116.515 18.7253C140.93 18.9949 165.297 19.5609 183.797 20.2214C193.046 20.5517 200.834 20.9057 206.431 21.2585C209.227 21.4348 211.487 21.6116 213.111 21.7859C213.922 21.8729 214.59 21.9608 215.094 22.0505C215.344 22.0952 215.571 22.144 215.762 22.197C215.88 22.23 216.049 22.2806 216.214 22.365L216.375 22.4607L216.468 22.532C216.672 22.7041 216.796 22.9159 216.867 23.0525C216.962 23.2339 217.042 23.4413 217.111 23.6541C217.251 24.0817 217.381 24.6387 217.508 25.2957C217.762 26.6164 218.016 28.453 218.269 30.7195C218.774 35.2591 219.279 41.6016 219.748 49.1619C220.687 64.2863 221.486 84.3304 221.863 104.676C222.241 125.019 222.197 145.68 221.446 162.033C221.071 170.207 220.519 177.325 219.751 182.798C219.367 185.533 218.926 187.878 218.42 189.748C217.922 191.584 217.332 193.08 216.588 194.017C215.766 195.053 214.242 195.748 212.404 196.259C210.514 196.783 208.078 197.167 205.197 197.44C199.43 197.986 191.738 198.099 182.757 197.925C164.787 197.576 141.522 196.08 117.898 194.571C94.2604 193.062 70.2601 191.54 50.7773 191.134C41.0352 190.93 32.4449 191.006 25.6064 191.5C22.1872 191.746 19.2221 192.097 16.7793 192.563C14.3235 193.032 12.455 193.608 11.1914 194.279C9.56116 195.145 7.96142 195.222 6.53711 194.371C5.20098 193.572 4.19428 192.054 3.4082 190.149C1.82761 186.319 0.884206 180.284 0.402344 172.844C-0.564644 157.915 0.302916 136.869 2.02832 115.286C3.75469 93.6908 6.34406 71.5109 8.83398 54.2947C10.0788 45.6876 11.3 38.3111 12.3779 32.864C12.9165 30.1425 13.4223 27.8889 13.8799 26.199C14.1085 25.3548 14.3288 24.6361 14.54 24.0642C14.7413 23.5195 14.9664 23.0172 15.2305 22.6736C15.5797 22.2192 16.1624 21.9343 16.7002 21.7322C17.2861 21.512 18.0296 21.3158 18.8984 21.1375C20.6404 20.7799 23.0049 20.4698 25.8828 20.2C31.6461 19.6596 39.5728 19.2715 48.9229 19.0085ZM116.492 20.7253C92.0894 20.4559 67.6471 20.4836 48.9795 21.0085C39.6428 21.2711 31.767 21.657 26.0693 22.1912C23.2174 22.4586 20.9371 22.7616 19.3008 23.0974C18.4805 23.2658 17.8504 23.4362 17.4033 23.6042C16.9087 23.7901 16.7987 23.9154 16.8164 23.8923C16.7492 23.9798 16.6086 24.2363 16.416 24.7576C16.2334 25.252 16.031 25.9075 15.8105 26.7214C15.3702 28.3477 14.8745 30.5509 14.3398 33.2527C13.2712 38.6529 12.0557 45.9918 10.8135 54.5808C8.32934 71.757 5.7443 93.8945 4.02148 115.445C2.29774 137.007 1.44115 157.936 2.39844 172.716C2.87872 180.13 3.81043 185.882 5.25684 189.386C5.98423 191.149 6.77873 192.185 7.5625 192.654C8.25802 193.07 9.09694 193.127 10.2529 192.513C11.7759 191.705 13.872 191.082 16.4043 190.598C18.9499 190.112 21.9985 189.756 25.4629 189.506C32.3918 189.006 41.0531 188.93 50.8193 189.134C70.3537 189.541 94.4001 191.066 118.025 192.575C141.666 194.085 164.881 195.577 182.796 195.925C191.756 196.098 199.357 195.984 205.009 195.449C207.837 195.181 210.141 194.81 211.869 194.331C213.649 193.837 214.622 193.278 215.021 192.775C215.497 192.174 216.004 191.015 216.489 189.224C216.965 187.467 217.393 185.212 217.771 182.52C218.526 177.138 219.074 170.09 219.448 161.941C220.196 145.649 220.24 125.036 219.863 104.713C219.486 84.3915 218.688 64.3761 217.752 49.2849C217.284 41.7378 216.781 35.4332 216.281 30.9412C216.031 28.6921 215.783 26.9158 215.544 25.6726C215.424 25.0483 215.311 24.5853 215.209 24.2732C215.187 24.2056 215.167 24.1495 215.149 24.1042C215.049 24.0794 214.915 24.0508 214.743 24.0203C214.306 23.9424 213.691 23.8602 212.898 23.7751C211.317 23.6055 209.091 23.4303 206.305 23.2546C200.735 22.9035 192.967 22.5504 183.726 22.2205C165.245 21.5606 140.893 20.9947 116.492 20.7253ZM104.605 30.3025C124.995 29.7711 145.935 29.614 163.025 29.9617C171.57 30.1355 179.161 30.4359 185.245 30.8796C191.296 31.321 195.946 31.9092 198.549 32.6873C200.849 33.375 202.337 35.7058 203.338 38.7429C204.359 41.8429 204.983 46.0142 205.322 50.9431C206.001 60.8142 205.548 73.9804 204.649 88.2927C202.848 116.994 199.262 150.304 199.262 171.617V172.543L198.339 172.614C172.17 174.627 132.051 177.043 96.7432 177.748C79.0915 178.1 62.6231 178.025 49.6943 177.256C43.2316 176.871 37.6316 176.311 33.2012 175.54C28.8218 174.777 25.4231 173.783 23.499 172.436C22.439 171.694 21.5822 170.496 20.8721 169.025C20.1563 167.543 19.5512 165.703 19.0391 163.583C18.0146 159.341 17.3306 153.851 16.9102 147.571C16.0688 135.003 16.2733 119.118 16.9834 103.376C17.6938 87.6278 18.9124 71.9946 20.1064 59.9187C20.7034 53.8812 21.2949 48.7266 21.8145 44.8884C22.0741 42.9705 22.3167 41.3734 22.5342 40.156C22.7447 38.978 22.9468 38.0569 23.1455 37.5662C23.3679 37.0174 23.889 36.69 24.2744 36.4919C24.7166 36.2648 25.2837 36.0611 25.9365 35.8728C27.2494 35.4942 29.0653 35.1344 31.292 34.7917C35.7549 34.105 41.9951 33.4669 49.4492 32.8914C64.3644 31.7397 84.217 30.8339 104.605 30.3025ZM162.984 31.9607C145.933 31.6138 125.026 31.7707 104.658 32.3015C84.2891 32.8324 64.4729 33.7374 49.6035 34.8855C42.1658 35.4598 35.9847 36.0931 31.5967 36.7683C29.3981 37.1066 27.6803 37.4515 26.4902 37.7947C25.8923 37.9671 25.4655 38.129 25.1885 38.2712C25.0689 38.3327 25.0013 38.378 24.9678 38.4031C24.86 38.7182 24.7001 39.4042 24.5029 40.5076C24.2924 41.6861 24.0536 43.2529 23.7959 45.157C23.2806 48.9637 22.6921 54.0927 22.0967 60.115C20.9058 72.1597 19.6901 87.758 18.9814 103.467C18.2725 119.181 18.0723 134.98 18.9062 147.438C19.3235 153.671 19.9976 159.031 20.9834 163.113C21.4764 165.154 22.0405 166.846 22.6729 168.156C23.3108 169.477 23.9822 170.332 24.6465 170.798C26.1716 171.865 29.1689 172.808 33.5449 173.57C37.8701 174.323 43.3865 174.877 49.8135 175.26C62.6644 176.024 79.0718 176.1 96.7031 175.748C131.551 175.052 171.108 172.685 197.267 170.688C197.367 149.267 200.888 116.292 202.653 88.1667C203.551 73.8614 203.996 60.809 203.327 51.0798C202.992 46.2089 202.382 42.2331 201.438 39.3689C200.474 36.4423 199.268 34.9897 197.976 34.6033C195.61 33.8961 191.167 33.3163 185.1 32.8738C179.064 32.4336 171.511 32.1342 162.984 31.9607Z" fill="black"/>
<path d="M83.7158 19.8334L128.264 3.44928L156.151 19.8334" stroke="black" stroke-width="2"/>
<circle cx="128.126" cy="3.01813" r="2.01813" fill="white" stroke="black" stroke-width="2"/>
<path d="M104.077 60.3627C104.036 60.4173 102.066 62.382 97.9949 66.3947C93.6325 70.6284 90.7004 73.3315 89.3868 74.4656C88.6981 75.1195 87.9647 75.9323 87.165 76.8358" stroke="black" stroke-width="2" stroke-linecap="round"/>
<path d="M161.378 97.4426C161.317 97.4793 153.784 106.653 143.509 116.007C137.418 121.553 130.29 129.513 123.987 136.507C117.685 143.501 112.613 149.491 109.794 152.777C106.975 156.062 106.562 156.463 106.136 156.876" stroke="black" stroke-width="2" stroke-linecap="round"/>
</svg>
