<svg width="955" height="537" viewBox="0 0 955 537" fill="none" xmlns="http://www.w3.org/2000/svg">
<line x1="140.075" y1="499.078" x2="99.2649" y2="463.706" stroke="#ACDDD9" stroke-width="4"/>
<circle cx="70.1881" cy="436.188" r="38" transform="rotate(-49.0832 70.1881 436.188)" stroke="#ACDDD9" stroke-width="4"/>
<path d="M69.7596 429.628L65.6727 434.344L67.7583 436.151C67.7113 435.758 67.7745 435.318 67.9478 434.833C68.1211 434.348 68.3912 433.894 68.7579 433.471C69.4129 432.716 70.1256 432.239 70.8961 432.043C71.6753 431.836 72.4374 431.852 73.1823 432.092C73.9272 432.332 74.6171 432.727 75.2518 433.277C76.4307 434.299 77.0795 435.443 77.1983 436.711C77.3071 437.97 76.8375 439.204 75.7896 440.413C75.0909 441.219 74.348 441.801 73.5607 442.16C72.7634 442.51 71.9781 442.632 71.205 442.527C70.4318 442.421 69.7097 442.104 69.0387 441.575L71.2263 439.051C71.591 439.262 71.9796 439.343 72.392 439.294C72.7944 439.237 73.1702 439.007 73.5196 438.604C73.93 438.131 74.0845 437.647 73.9831 437.153C73.8817 436.659 73.5791 436.194 73.0753 435.758C72.5816 435.33 72.099 435.123 71.6275 435.138C71.1559 435.153 70.7193 435.392 70.3176 435.855C70.0207 436.198 69.8618 436.554 69.8409 436.924C69.81 437.286 69.9 437.62 70.1109 437.926L67.9496 440.42L61.3753 434.721L67.4927 427.663L69.7596 429.628Z" fill="#ACDDD9"/>
<line x1="751.396" y1="433.723" x2="872.811" y2="274.789" stroke="#ACDDD9" stroke-width="4"/>
<circle cx="898.482" cy="244.069" r="38" transform="rotate(37.3776 898.482 244.069)" stroke="#ACDDD9" stroke-width="4"/>
<path d="M909.814 246.912L904.855 243.124L903.18 245.317C903.57 245.246 904.012 245.282 904.507 245.425C905.002 245.568 905.472 245.809 905.917 246.149C906.711 246.756 907.231 247.438 907.474 248.195C907.729 248.96 907.76 249.722 907.566 250.48C907.373 251.238 907.021 251.951 906.511 252.619C905.564 253.858 904.462 254.577 903.204 254.773C901.954 254.96 900.694 254.567 899.422 253.596C898.575 252.948 897.948 252.243 897.541 251.479C897.142 250.705 896.972 249.929 897.03 249.151C897.087 248.372 897.359 247.632 897.845 246.93L900.499 248.957C900.312 249.334 900.255 249.727 900.329 250.136C900.411 250.534 900.664 250.895 901.087 251.219C901.585 251.599 902.078 251.723 902.564 251.592C903.051 251.46 903.496 251.129 903.901 250.599C904.298 250.08 904.474 249.586 904.43 249.116C904.386 248.646 904.121 248.225 903.633 247.853C903.273 247.578 902.908 247.441 902.537 247.443C902.174 247.435 901.847 247.545 901.554 247.775L898.932 245.771L904.213 238.858L911.635 244.528L909.814 246.912Z" fill="#ACDDD9"/>
<path d="M891.425 234.299C892.334 233.197 893.372 232.606 894.541 232.526C895.71 232.446 896.893 232.863 898.09 233.778C898.885 234.385 899.458 235.04 899.809 235.745C900.17 236.457 900.312 237.161 900.234 237.857C900.167 238.56 899.906 239.209 899.453 239.802C898.919 240.501 898.307 240.94 897.617 241.118C896.936 241.285 896.301 241.27 895.713 241.073L895.665 241.136C896.115 241.799 896.337 242.497 896.33 243.23C896.324 243.964 896.041 244.696 895.483 245.427C894.981 246.084 894.382 246.549 893.686 246.823C893.009 247.094 892.27 247.151 891.469 246.991C890.678 246.84 889.885 246.461 889.091 245.854C887.819 244.883 887.041 243.793 886.756 242.586C886.481 241.386 886.804 240.139 887.725 238.846L890.363 240.861C890.018 241.336 889.867 241.808 889.911 242.277C889.962 242.737 890.232 243.152 890.719 243.525C891.133 243.84 891.54 243.967 891.94 243.904C892.359 243.838 892.719 243.609 893.018 243.217C893.407 242.708 893.522 242.217 893.363 241.744C893.224 241.268 892.799 240.759 892.089 240.217L891.58 239.828L893.268 237.619L893.776 238.008C894.317 238.42 894.82 238.662 895.286 238.733C895.771 238.801 896.195 238.597 896.56 238.12C896.851 237.739 896.972 237.361 896.922 236.987C896.872 236.614 896.661 236.285 896.29 236.002C895.888 235.694 895.493 235.585 895.105 235.675C894.728 235.773 894.386 235.99 894.079 236.326L891.425 234.299Z" fill="#ACDDD9"/>
<line x1="239.08" y1="183.831" x2="217.003" y2="87.3196" stroke="#ACDDD9" stroke-width="4"/>
<circle cx="209.912" cy="47.9123" r="38" transform="rotate(-12.8846 209.912 47.9123)" stroke="#ACDDD9" stroke-width="4"/>
<path d="M207.984 47.8406C207.473 45.605 207.499 43.7457 208.062 42.2627C208.639 40.7767 209.889 39.8137 211.812 39.3737C213.736 38.9337 215.274 39.2589 216.426 40.3495C217.591 41.437 218.43 43.0986 218.941 45.3342C219.458 47.5958 219.429 49.4696 218.852 50.9555C218.289 52.4385 217.045 53.4 215.122 53.8401C213.198 54.2801 211.654 53.9563 210.488 52.8688C209.336 51.7782 208.501 50.1022 207.984 47.8406ZM215.666 46.0834C215.365 44.7707 214.992 43.7961 214.546 43.1596C214.096 42.5101 213.423 42.288 212.526 42.4931C211.629 42.6983 211.12 43.191 210.997 43.9713C210.872 44.7386 210.959 45.7786 211.259 47.0913C211.462 47.9752 211.682 48.6976 211.919 49.2588C212.154 49.8069 212.469 50.2272 212.864 50.5198C213.27 50.7964 213.784 50.8633 214.408 50.7206C215.032 50.5779 215.46 50.2954 215.691 49.8731C215.933 49.4349 216.041 48.9179 216.014 48.3222C215.984 47.7135 215.868 46.9673 215.666 46.0834Z" fill="#ACDDD9"/>
<path d="M199.429 45.7763L198.72 42.6763L204.12 41.441L207.376 55.6734L203.905 56.4672L201.359 45.3347L199.429 45.7763Z" fill="#ACDDD9"/>
</svg>
