<svg width="439" height="194" viewBox="0 0 439 194" fill="none" xmlns="http://www.w3.org/2000/svg">
<line x1="293.235" y1="175.002" x2="379.878" y2="61.586" stroke="#ACDDD9" stroke-width="4"/>
<circle cx="398.652" cy="40.011" r="26.5443" transform="rotate(37.3776 398.652 40.011)" stroke="#ACDDD9" stroke-width="4"/>
<path d="M406.739 42.0399L403.2 39.3367L402.005 40.9018C402.283 40.851 402.599 40.8766 402.952 40.9787C403.305 41.0808 403.64 41.2531 403.958 41.4957C404.525 41.9289 404.895 42.4156 405.069 42.9557C405.251 43.5015 405.273 44.045 405.135 44.5862C404.997 45.1273 404.746 45.6361 404.382 46.1124C403.706 46.997 402.92 47.5096 402.022 47.6501C401.13 47.783 400.231 47.5029 399.323 46.8098C398.718 46.3477 398.271 45.8442 397.981 45.2992C397.696 44.7467 397.575 44.1928 397.616 43.6375C397.657 43.0822 397.851 42.5539 398.198 42.0527L400.092 43.4996C399.958 43.7686 399.918 44.049 399.97 44.3406C400.029 44.6247 400.209 44.8822 400.512 45.1133C400.867 45.3847 401.218 45.4735 401.565 45.3795C401.913 45.2855 402.231 45.0495 402.519 44.6715C402.802 44.301 402.928 43.9481 402.897 43.6129C402.866 43.2777 402.676 42.9773 402.328 42.7116C402.071 42.5152 401.811 42.4177 401.546 42.4192C401.287 42.4131 401.053 42.4919 400.845 42.6556L398.973 41.226L402.742 36.2925L408.039 40.3387L406.739 42.0399Z" fill="#ACDDD9"/>
<path d="M393.617 33.0391C394.265 32.2531 395.006 31.8315 395.84 31.7742C396.674 31.7169 397.518 32.0146 398.373 32.6673C398.94 33.1005 399.349 33.5685 399.599 34.0712C399.857 34.5797 399.959 35.082 399.903 35.5782C399.855 36.0802 399.669 36.5429 399.345 36.9663C398.964 37.4653 398.527 37.7783 398.035 37.9052C397.549 38.0246 397.096 38.014 396.677 37.8732L396.642 37.9186C396.963 38.3915 397.122 38.8896 397.117 39.4129C397.112 39.9362 396.911 40.4587 396.512 40.9804C396.154 41.4491 395.727 41.7812 395.23 41.9767C394.747 42.1703 394.22 42.2103 393.648 42.0968C393.084 41.989 392.518 41.7185 391.951 41.2853C391.044 40.5922 390.488 39.8147 390.284 38.9527C390.088 38.0965 390.319 37.207 390.976 36.2841L392.859 37.7224C392.612 38.0608 392.505 38.3976 392.536 38.7329C392.573 39.0605 392.765 39.3572 393.113 39.6229C393.408 39.8481 393.698 39.9383 393.984 39.8932C394.283 39.8464 394.54 39.6831 394.754 39.4033C395.031 39.0404 395.113 38.69 395 38.3522C394.9 38.0126 394.597 37.6493 394.09 37.2623L393.727 36.985L394.932 35.4086L395.295 35.6858C395.68 35.9804 396.039 36.1529 396.372 36.2035C396.718 36.2522 397.021 36.1065 397.281 35.7662C397.489 35.494 397.575 35.2245 397.539 34.9578C397.503 34.6911 397.353 34.4566 397.089 34.2545C396.801 34.035 396.519 33.9573 396.243 34.0215C395.974 34.0914 395.73 34.2462 395.511 34.486L393.617 33.0391Z" fill="#ACDDD9"/>
<line x1="99.5833" y1="131.398" x2="70.461" y2="106.157" stroke="#ACDDD9" stroke-width="4"/>
<circle cx="50.0867" cy="86.0867" r="26.5443" transform="rotate(-49.0832 50.0867 86.0867)" stroke="#ACDDD9" stroke-width="4"/>
<path d="M49.7811 81.4056L46.8646 84.7705L48.3529 86.0605C48.3193 85.7796 48.3644 85.4661 48.4881 85.12C48.6118 84.774 48.8045 84.4499 49.0662 84.148C49.5336 83.6087 50.0422 83.2689 50.592 83.1284C51.1481 82.9808 51.6919 82.9926 52.2235 83.1637C52.7551 83.3349 53.2474 83.6168 53.7003 84.0094C54.5415 84.7385 55.0046 85.5553 55.0894 86.4599C55.167 87.3582 54.8319 88.2387 54.0841 89.1015C53.5855 89.6767 53.0553 90.0923 52.4935 90.3482C51.9245 90.5979 51.3642 90.6851 50.8125 90.6099C50.2607 90.5346 49.7454 90.3083 49.2666 89.931L50.8277 88.13C51.0879 88.28 51.3652 88.3378 51.6596 88.3033C51.9467 88.2626 52.2149 88.0984 52.4642 87.8108C52.7571 87.4729 52.8673 87.1277 52.795 86.7754C52.7226 86.4231 52.5067 86.0911 52.1472 85.7795C51.7949 85.4742 51.4505 85.3268 51.1139 85.3373C50.7774 85.3478 50.4659 85.5185 50.1792 85.8492C49.9673 86.0937 49.8539 86.3479 49.8391 86.6121C49.817 86.87 49.8812 87.1082 50.0317 87.3268L48.4894 89.1063L43.7979 85.04L48.1633 80.0035L49.7811 81.4056Z" fill="#ACDDD9"/>
</svg>
