<svg width="194" height="40" viewBox="0 0 194 40" fill="none" xmlns="http://www.w3.org/2000/svg">
<path d="M49.7846 22.5608C48.636 22.0699 47.7279 21.3631 47.0603 20.4402C46.3927 19.5174 46.0491 18.4276 46.0294 17.171H50.4473C50.5062 18.0153 50.8057 18.6829 51.3456 19.1737C51.8856 19.6646 52.6268 19.9101 53.5693 19.9101C54.5118 19.9101 55.2874 19.6793 55.8372 19.2179C56.387 18.7565 56.6619 18.1527 56.6619 17.4066C56.6619 16.7979 56.4753 16.2972 56.1023 15.9045C55.7292 15.5118 55.2629 15.2025 54.7033 14.9767C54.1437 14.7509 53.373 14.5006 52.3912 14.2257C51.056 13.833 49.9712 13.4452 49.1367 13.0623C48.3022 12.6794 47.5855 12.1002 46.9866 11.3246C46.3878 10.549 46.0883 9.51324 46.0883 8.21732C46.0883 6.99994 46.3927 5.93965 47.0014 5.03643C47.61 4.13321 48.4642 3.44107 49.5637 2.96001C50.6633 2.47895 51.92 2.23842 53.3337 2.23842C55.4543 2.23842 57.1773 2.75384 58.5027 3.78468C59.828 4.81553 60.5595 6.2538 60.6969 8.09951H56.1612C56.1219 7.39264 55.8225 6.8085 55.2629 6.34707C54.7033 5.88565 53.962 5.65493 53.0392 5.65493C52.2341 5.65493 51.5911 5.86111 51.11 6.27345C50.629 6.68578 50.3884 7.28465 50.3884 8.07006C50.3884 8.61984 50.5701 9.07636 50.9333 9.43961C51.2966 9.80286 51.7482 10.0974 52.2881 10.3232C52.8281 10.549 53.589 10.8092 54.5707 11.1037C55.9059 11.4964 56.9957 11.8891 57.84 12.2818C58.6843 12.6745 59.4108 13.2636 60.0195 14.049C60.6282 14.8344 60.9325 15.8652 60.9325 17.1415C60.9325 18.2411 60.6478 19.2621 60.0784 20.2046C59.509 21.1471 58.6745 21.8981 57.5749 22.4577C56.4753 23.0173 55.1696 23.2971 53.6577 23.2971C52.2243 23.2971 50.9333 23.0517 49.7846 22.5608Z" fill="black"/>
<path d="M69.297 10.1612V18.0545C69.297 18.6043 69.4296 19.0019 69.6946 19.2474C69.9597 19.4928 70.4064 19.6155 71.0348 19.6155H72.9492V23.091H70.3573C66.8819 23.091 65.1442 21.4023 65.1442 18.0251V10.1612H63.2003V6.77413H65.1442V2.73911H69.297V6.77413H72.9492V10.1612H69.297Z" fill="black"/>
<path d="M91.3278 6.77414V23.091H87.1749V21.0293C86.6448 21.7361 85.9527 22.2908 85.0985 22.6934C84.2444 23.0959 83.3166 23.2971 82.3152 23.2971C81.039 23.2971 79.9099 23.0272 78.9282 22.4872C77.9464 21.9472 77.1757 21.152 76.6161 20.1015C76.0565 19.051 75.7767 17.7993 75.7767 16.3463V6.77414H79.9001V15.7572C79.9001 17.0531 80.2241 18.0496 80.8721 18.7467C81.52 19.4437 82.4036 19.7923 83.5228 19.7923C84.642 19.7923 85.555 19.4437 86.203 18.7467C86.851 18.0496 87.1749 17.0531 87.1749 15.7572V6.77414H91.3278Z" fill="black"/>
<path d="M95.3187 10.4852C95.9765 9.20889 96.8748 8.22713 98.0136 7.5399C99.1525 6.85267 100.419 6.50906 101.813 6.50906C102.873 6.50906 103.885 6.73978 104.847 7.2012C105.809 7.66263 106.575 8.27623 107.144 9.042V1.29593H111.326V23.091H107.144V20.6758C106.633 21.4809 105.917 22.1288 104.994 22.6197C104.071 23.1106 103.001 23.356 101.784 23.356C100.409 23.356 99.1525 23.0026 98.0136 22.2957C96.8748 21.5889 95.9765 20.5924 95.3187 19.3063C94.6609 18.0202 94.332 16.5426 94.332 14.8736C94.332 13.2046 94.6609 11.7615 95.3187 10.4852ZM106.584 12.3554C106.192 11.6388 105.662 11.089 104.994 10.7061C104.326 10.3232 103.61 10.1318 102.844 10.1318C102.078 10.1318 101.371 10.3183 100.723 10.6914C100.075 11.0644 99.5501 11.6093 99.1476 12.326C98.745 13.0427 98.5438 13.8919 98.5438 14.8736C98.5438 15.8554 98.745 16.7144 99.1476 17.4508C99.5501 18.1871 100.08 18.7516 100.738 19.1443C101.396 19.537 102.098 19.7333 102.844 19.7333C103.59 19.7333 104.326 19.5419 104.994 19.159C105.662 18.7761 106.192 18.2263 106.584 17.5097C106.977 16.793 107.173 15.9339 107.173 14.9325C107.173 13.9312 106.977 13.0721 106.584 12.3554Z" fill="black"/>
<path d="M115.641 4.13811C115.16 3.67669 114.919 3.10236 114.919 2.41513C114.919 1.7279 115.16 1.15357 115.641 0.692141C116.122 0.230715 116.726 0 117.452 0C118.179 0 118.783 0.230715 119.264 0.692141C119.745 1.15357 119.985 1.7279 119.985 2.41513C119.985 3.10236 119.745 3.67669 119.264 4.13811C118.783 4.59954 118.179 4.83026 117.452 4.83026C116.726 4.83026 116.122 4.59954 115.641 4.13811ZM119.485 6.77413V23.091H115.361V6.77413H119.485Z" fill="black"/>
<path d="M126.553 22.3105C125.297 21.6134 124.31 20.6267 123.593 19.3505C122.877 18.0742 122.518 16.6015 122.518 14.9326C122.518 13.2636 122.886 11.7909 123.623 10.5146C124.359 9.23835 125.365 8.25169 126.642 7.55464C127.918 6.85759 129.342 6.50906 130.912 6.50906C132.483 6.50906 133.907 6.85759 135.183 7.55464C136.459 8.25169 137.466 9.23835 138.202 10.5146C138.938 11.7909 139.306 13.2636 139.306 14.9326C139.306 16.6015 138.928 18.0742 138.172 19.3505C137.416 20.6267 136.395 21.6134 135.109 22.3105C133.823 23.0075 132.385 23.356 130.795 23.356C129.204 23.356 127.81 23.0075 126.553 22.3105ZM132.9 19.2179C133.558 18.8547 134.083 18.3098 134.476 17.5833C134.869 16.8568 135.065 15.9732 135.065 14.9326C135.065 13.3814 134.658 12.1885 133.843 11.354C133.028 10.5195 132.032 10.1023 130.853 10.1023C129.675 10.1023 128.689 10.5195 127.893 11.354C127.098 12.1885 126.701 13.3814 126.701 14.9326C126.701 16.4837 127.088 17.6766 127.864 18.5111C128.64 19.3455 129.616 19.7628 130.795 19.7628C131.541 19.7628 132.243 19.5812 132.9 19.2179Z" fill="black"/>
<path d="M156.86 14.2846C157.606 15.2271 157.979 16.307 157.979 17.5244C157.979 18.624 157.709 19.591 157.169 20.4255C156.629 21.26 155.849 21.9129 154.828 22.3841C153.807 22.8553 152.599 23.091 151.205 23.091H142.34V2.53294H150.822C152.216 2.53294 153.419 2.75875 154.43 3.21036C155.442 3.66197 156.207 4.29029 156.728 5.09533C157.248 5.90038 157.508 6.81341 157.508 7.83444C157.508 9.03218 157.189 10.0336 156.551 10.8386C155.913 11.6437 155.064 12.2131 154.003 12.5469C155.162 12.7629 156.114 13.3421 156.86 14.2846ZM146.463 11.0153H150.233C151.215 11.0153 151.971 10.7944 152.501 10.3527C153.031 9.91086 153.296 9.27762 153.296 8.45294C153.296 7.62827 153.031 6.99013 152.501 6.53852C151.971 6.08691 151.215 5.8611 150.233 5.8611H146.463V11.0153ZM152.958 19.0265C153.517 18.5552 153.797 17.8876 153.797 17.0237C153.797 16.1598 153.503 15.448 152.913 14.9473C152.324 14.4466 151.529 14.1962 150.528 14.1962H146.463V19.7334H150.616C151.618 19.7334 152.398 19.4977 152.958 19.0265Z" fill="#ED3D94"/>
<path d="M161.558 4.13811C161.077 3.67669 160.836 3.10236 160.836 2.41513C160.836 1.7279 161.077 1.15357 161.558 0.692141C162.039 0.230715 162.643 0 163.369 0C164.096 0 164.7 0.230715 165.181 0.692141C165.662 1.15357 165.902 1.7279 165.902 2.41513C165.902 3.10236 165.662 3.67669 165.181 4.13811C164.7 4.59954 164.096 4.83026 163.369 4.83026C162.643 4.83026 162.039 4.59954 161.558 4.13811ZM165.401 6.77413V23.091H161.278V6.77413H165.401Z" fill="#ED3D94"/>
<path d="M169.392 10.4852C170.05 9.20889 170.948 8.22713 172.087 7.5399C173.226 6.85267 174.493 6.50906 175.887 6.50906C176.947 6.50906 177.958 6.73978 178.92 7.2012C179.882 7.66263 180.648 8.27623 181.218 9.042V1.29593H185.4V23.091H181.218V20.6758C180.707 21.4809 179.99 22.1288 179.068 22.6197C178.145 23.1106 177.075 23.356 175.857 23.356C174.483 23.356 173.226 23.0026 172.087 22.2957C170.948 21.5889 170.05 20.5924 169.392 19.3063C168.735 18.0202 168.406 16.5426 168.406 14.8736C168.406 13.2046 168.735 11.7615 169.392 10.4852ZM180.658 12.3554C180.265 11.6388 179.735 11.089 179.068 10.7061C178.4 10.3232 177.683 10.1318 176.917 10.1318C176.152 10.1318 175.445 10.3183 174.797 10.6914C174.149 11.0644 173.624 11.6093 173.221 12.326C172.819 13.0427 172.617 13.8919 172.617 14.8736C172.617 15.8554 172.819 16.7144 173.221 17.4508C173.624 18.1871 174.154 18.7516 174.812 19.1443C175.469 19.537 176.171 19.7333 176.917 19.7333C177.664 19.7333 178.4 19.5419 179.068 19.159C179.735 18.7761 180.265 18.2263 180.658 17.5097C181.051 16.793 181.247 15.9339 181.247 14.9325C181.247 13.9312 181.051 13.0721 180.658 12.3554Z" fill="#ED3D94"/>
<path d="M189.42 22.605C188.939 22.1436 188.699 21.5692 188.699 20.882C188.699 20.1948 188.939 19.6204 189.42 19.159C189.901 18.6976 190.515 18.4669 191.261 18.4669C192.007 18.4669 192.586 18.6976 193.058 19.159C193.529 19.6204 193.764 20.1948 193.764 20.882C193.764 21.5692 193.529 22.1436 193.058 22.605C192.586 23.0664 191.988 23.2971 191.261 23.2971C190.534 23.2971 189.901 23.0664 189.42 22.605Z" fill="black"/>
<path d="M24.038 6.77932L15.2071 0.584418C13.7492 -0.43661 11.7415 -0.0831745 10.7205 1.36983C10.3228 1.93434 10.4603 2.71484 11.0248 3.11245L12.0704 3.84877L3.45053 16.1404L2.32641 15.3501C1.7619 14.9525 0.981406 15.0899 0.583793 15.6544C-0.437236 17.1123 -0.0838015 19.12 1.3692 20.141L10.2001 26.3359C11.658 27.357 13.6657 27.0035 14.6868 25.5505C15.0844 24.986 14.9469 24.2055 14.3824 23.8079L13.2583 23.0176L21.8781 10.726L23.0808 11.5703C23.6453 11.9679 24.4258 11.8305 24.8234 11.266C25.8444 9.80804 25.491 7.80035 24.038 6.77932Z" fill="black"/>
<path d="M20.1305 16.1794L18.1523 18.9185C17.9952 19.1345 18.0394 19.4339 18.2456 19.6008L34.7686 32.9969C35.2005 33.3405 35.8338 33.2571 36.1627 32.8104L39.4123 28.4268C39.7461 27.9752 39.6332 27.3321 39.1619 27.0229L20.8079 16.0567C20.587 15.9094 20.2876 15.9683 20.1354 16.1843L20.1305 16.1794Z" fill="black"/>
<path d="M40.075 30.0222L37.8661 33.0558C37.3948 33.6989 37.655 34.6217 38.3913 34.9212L41.6311 36.2367C42.1515 36.4478 42.7503 36.2711 43.0743 35.8047L44.3162 34.0228C44.6402 33.5565 44.6059 32.9233 44.2279 32.5011L41.9551 29.9289C41.4397 29.3497 40.5267 29.3938 40.0701 30.0173L40.075 30.0222Z" fill="black"/>
<path d="M45.4846 34.7984C46.5351 32.7564 48.8078 33.1393 49.5687 34.0228C50.1381 34.6806 50.251 35.5151 52.2194 35.9962C54.1879 36.4772 56.9417 34.4254 57.0988 34.4892C57.2559 34.553 56.2692 36.5509 54.6493 37.621C53.2994 38.5537 51.4488 38.588 51.3015 38.7107C50.7125 39.0838 52.9656 39.1918 52.995 39.344C53.0245 39.4961 50.4768 40.8461 47.1879 39.1623C46.6185 38.7696 44.4096 37.6995 45.4895 34.7935L45.4846 34.7984Z" fill="black"/>
</svg>
